<?xml version="1.0" encoding="iso-8859-1"?>
<!-- Generator: Adobe Illustrator 18.1.1, SVG Export Plug-In . SVG Version: 6.00 Build 0)  -->
<svg version="1.1" id="Capa_1" xmlns="http://www.w3.org/2000/svg" xmlns:xlink="http://www.w3.org/1999/xlink" x="0px" y="0px"
	 viewBox="0 0 26.053 26.053" style="enable-background:new 0 0 26.053 26.053;" xml:space="preserve">
<g>
	<path d="M13.027,19.965c-5.961,0-10.635-2.133-10.635-4.854V12.05c0-0.436,0.131-0.875,0.381-1.309l0.494-0.855l0.49,0.855
		c0.855,1.473,4.312,2.973,9.27,2.973c4.955,0,8.414-1.5,9.268-2.973l0.492-0.852l0.492,0.85c0.254,0.434,0.381,0.875,0.381,1.311
		v3.061C23.66,17.832,18.993,19.965,13.027,19.965z M3.535,12.232v2.879c0,1.76,3.896,3.715,9.492,3.715s9.494-1.955,9.494-3.715
		v-2.879c-1.744,1.598-5.338,2.619-9.494,2.619C8.869,14.852,5.279,13.83,3.535,12.232z"/>
	<path d="M13.027,26.053c-5.961,0-10.635-2.131-10.635-4.854v-3.061c0-0.436,0.131-0.877,0.381-1.312l0.494-0.852l0.49,0.852
		c0.855,1.479,4.312,2.975,9.27,2.975c4.955,0,8.414-1.496,9.268-2.975l0.492-0.852l0.492,0.852
		c0.254,0.432,0.381,0.877,0.381,1.312v3.061C23.66,23.922,18.993,26.053,13.027,26.053z M3.535,18.318v2.881
		c0,1.756,3.896,3.715,9.492,3.715s9.494-1.959,9.494-3.715v-2.881c-1.744,1.6-5.338,2.621-9.494,2.621
		C8.869,20.939,5.279,19.92,3.535,18.318z"/>
	<path d="M13.027,13.801c-5.961,0-10.635-2.135-10.635-4.856V5.883c0-0.414,0.117-0.838,0.348-1.252l0.863-1.576l0.201,1.783
		c0.119,1.068,3.473,2.615,9.223,2.615c5.746,0,9.104-1.547,9.223-2.615l0.203-1.783l0.861,1.574
		c0.229,0.416,0.346,0.84,0.346,1.254v3.062C23.66,11.666,18.993,13.801,13.027,13.801z M3.535,6.396v2.549
		c0,1.754,3.896,3.717,9.492,3.717s9.494-1.963,9.494-3.717V6.396c-1.707,1.447-5.66,2.195-9.494,2.195S5.24,7.844,3.535,6.396z"/>
	<path d="M13.027,7.623c-5.03,0-10.375-1.336-10.375-3.812S7.997,0,13.027,0s10.379,1.334,10.379,3.811S18.056,7.623,13.027,7.623z
		 M13.027,1.141c-5.725,0-9.238,1.553-9.238,2.67c0,1.115,3.514,2.672,9.238,2.672s9.238-1.557,9.238-2.672
		C22.265,2.693,18.751,1.141,13.027,1.141z"/>
	<g>
	</g>
	<g>
	</g>
	<g>
	</g>
	<g>
	</g>
	<g>
	</g>
	<g>
	</g>
	<g>
	</g>
	<g>
	</g>
	<g>
	</g>
	<g>
	</g>
	<g>
	</g>
	<g>
	</g>
	<g>
	</g>
	<g>
	</g>
	<g>
	</g>
</g>
<g>
</g>
<g>
</g>
<g>
</g>
<g>
</g>
<g>
</g>
<g>
</g>
<g>
</g>
<g>
</g>
<g>
</g>
<g>
</g>
<g>
</g>
<g>
</g>
<g>
</g>
<g>
</g>
<g>
</g>
</svg>
